<?xml version="1.0" encoding="iso-8859-1"?>
<!-- Generator: Adobe Illustrator 19.0.0, SVG Export Plug-In . SVG Version: 6.00 Build 0)  -->
<svg viewBox="0 0 512 512" style="enable-background:new 0 0 512 512;" xml:space="preserve">
	<g>
		<path d="M508.022,185.826L422,92.635V15c0-8.284-6.716-15-15-15H105c-8.284,0-15,6.716-15,15v77.635l-86.022,93.19
			C1.42,188.597,0,192.229,0,196v271c0,24.792,20.186,45,45,45h422c24.826,0,45-20.223,45-45V196
			C512,192.229,510.58,188.597,508.022,185.826z M422,136.865l53.53,57.991L422,241.724V136.865z M120,30h272v237.99L256,387.063
			L120,267.99V30z M90,136.865v104.859l-53.53-46.868L90,136.865z M30,463.932V229.065l134.11,117.418L30,463.932z M54.904,482
			L186.88,366.419l59.239,51.866c2.828,2.476,6.354,3.714,9.881,3.714s7.053-1.238,9.881-3.714l59.239-51.866L457.096,482H54.904z
			 M482,463.931L347.891,346.483L482,229.065V463.931z"/>
	</g>
	<g>
		<path d="M256,91c-49.626,0-90,40.374-90,90c0,49.583,40.35,90,90,90c49.626,0,90-40.374,90-90C346,131.426,305.661,91,256,91z
			 M196,181c0-33.084,26.916-60,60-60c11.111,0,21.52,3.047,30.454,8.333l-82.121,82.12C199.047,202.52,196,192.111,196,181z
			 M256,241c-11.111,0-21.52-3.047-30.454-8.333l82.121-82.12C312.953,159.48,316,169.889,316,181C316,214.084,289.084,241,256,241z
			"/>
	</g>
</svg>
