<?xml version="1.0" encoding="iso-8859-1"?>
<!-- Generator: Adobe Illustrator 19.0.0, SVG Export Plug-In . SVG Version: 6.00 Build 0)  -->
<svg version="1.1" id="Layer_1" xmlns="http://www.w3.org/2000/svg" xmlns:xlink="http://www.w3.org/1999/xlink" x="0px" y="0px"
	 viewBox="0 0 512 512" style="enable-background:new 0 0 512 512;" xml:space="preserve">
<g>
	<g>
		<g>
			<path d="M159.843,147.688c0.003,0.018,0.008,0.05,0.015,0.087l0.001-0.001L159.843,147.688z"/>
			<path d="M494.922,200.547L448,165.398V85.336V64.664L384,0h-21.344H63.992v165.406L17.07,200.547
				C7.68,207.578,0,222.93,0,234.664v255.992C0,502.406,9.594,512,21.328,512h469.328c11.75,0,21.344-9.594,21.344-21.344V234.664
				C512,222.93,504.313,207.578,494.922,200.547z M448,192.055l34.125,25.562c0.938,0.703,1.906,1.758,2.844,3.008L448,244.961
				V192.055z M384,30.328l27.219,27.516L417.313,64H384V30.328z M85.328,21.336h277.328v64h64v173.656l-65.469,43.07
				c-2.688-8.953-10.25-26.25-29.938-36.102c3.594-9.57,6.172-20.094,7.813-31.297h34.266c5.891,0,10.672-4.773,10.672-10.664
				s-4.781-10.664-10.672-10.664h-32.297c0.156-3.516,0.25-7.07,0.25-10.672c0-3.258-0.094-6.438-0.25-9.531
				c27.594-13.25,32-41,32.188-42.242h-0.016c0.078-0.508,0.125-1.023,0.125-1.555c0-5.891-4.766-10.672-10.672-10.672
				c-5.344,0-9.781,3.961-10.531,9.117l-0.015-0.007c-0.228,1.292-2.684,13.69-14.048,22.296
				c-5.906-27.117-19.813-45.367-40.344-55.07l20.859-34.859h-0.016c0.969-1.602,1.531-3.469,1.531-5.477
				c0-5.891-4.781-10.664-10.672-10.664c-3.891,0-7.266,2.086-9.141,5.195v-0.008l-23.5,39.25c-6.5-1.18-13.438-1.773-20.781-1.773
				c-7.32,0-14.227,0.586-20.703,1.758l-23.484-39.234l-0.008,0.008c-1.859-3.109-5.258-5.195-9.141-5.195
				C196.773,64,192,68.773,192,74.664c0,2.008,0.563,3.875,1.523,5.477l-0.016,0.008l20.844,34.82
				c-20.578,9.695-34.508,27.961-40.422,55.117c-11.378-8.607-13.843-21.019-14.071-22.311l-0.015,0.007
				c-0.75-5.156-5.18-9.117-10.539-9.117c-5.891,0-10.664,4.781-10.664,10.672c0,0.531,0.047,1.047,0.125,1.555h-0.016
				c0.188,1.242,4.602,29.008,32.219,42.258c-0.164,3.086-0.242,6.258-0.242,9.516c0,3.602,0.078,7.156,0.227,10.672h-32.289
				c-5.891,0-10.664,4.773-10.664,10.664c0,5.891,4.773,10.664,10.664,10.664h34.266c1.641,11.211,4.219,21.727,7.82,31.305
				c-19.664,9.844-27.227,27.078-29.938,36.063l-65.484-43.078V21.336z M255.524,342.657c-10.531,0-20.18,3.766-27.688,10
				l-58.391-38.375c0.547-1.047,0.914-2.188,1.094-3.391h0.008c0.031-0.172,2.742-17.203,19.641-25.781
				C203.883,306.656,225.297,320,256,320c30.688,0,52.109-13.344,65.813-34.891c16.563,8.438,19.531,25.109,19.656,25.859
				l-0.001-0.002c0.177,1.191,0.56,2.337,1.095,3.346l-58.891,38.751C276.094,346.594,266.274,342.657,255.524,342.657z
				 M277.531,386c0,12.125-9.883,22-22.008,22c-12.133,0-22-9.875-22-22s9.868-22,22-22C267.648,364,277.531,373.875,277.531,386z
				 M199.344,160c2.547-5.914,5.758-10.984,9.625-15.195C219.227,133.656,235.047,128,256,128c20.938,0,36.766,5.656,47.031,16.805
				c3.859,4.211,7.063,9.281,9.625,15.195H199.344z M318.469,181.336c0.969,6.516,1.469,13.633,1.469,21.328
				c0,30.102-5.656,54.797-16.391,71.398c-8.813,13.656-20.953,21.531-36.883,23.859V181.336H318.469z M245.328,181.336v116.586
				c-15.938-2.328-28.07-10.203-36.883-23.859c-10.727-16.602-16.391-41.297-16.391-71.398c0.001-7.696,0.501-14.813,1.477-21.329
				H245.328z M29.859,217.617l34.133-25.555v52.867l-36.977-24.313C27.953,219.375,28.922,218.32,29.859,217.617z M490.655,490.625
				c0.001,0.016-0.014,0.031-0.03,0.031H21.367c-0.008,0-0.023-0.016-0.039-0.031V242.406l193.945,127.531
				c-1.984,4.969-3.086,10.375-3.086,16.063c0,23.938,19.398,43.344,43.336,43.344c23.93,0,43.32-19.406,43.32-43.344
				c0-5.469-1-10.688-2.844-15.5l194.656-128.086V490.625z"/>
			<path d="M341.438,310.89l0.03,0.076c-0.004-0.026-0.011-0.05-0.014-0.076H341.438z"/>
			<path d="M352.109,147.772l0.001,0.001c0.006-0.037,0.012-0.068,0.015-0.087L352.109,147.772z"/>
		</g>
	</g>
</g>
<g>
	<g>
		<path d="M181.328,448h-128c-5.891,0-10.664,4.781-10.664,10.656c0,5.906,4.773,10.688,10.664,10.688h128
			c5.891,0,10.672-4.781,10.672-10.688C192,452.781,187.219,448,181.328,448z"/>
	</g>
</g>
<g>
	<g>
		<path d="M96,405.344H53.328c-5.891,0-10.664,4.766-10.664,10.656s4.774,10.656,10.664,10.656H96
			c5.891,0,10.664-4.766,10.664-10.656S101.891,405.344,96,405.344z"/>
	</g>
</g>
<g>
</g>
<g>
</g>
<g>
</g>
<g>
</g>
<g>
</g>
<g>
</g>
<g>
</g>
<g>
</g>
<g>
</g>
<g>
</g>
<g>
</g>
<g>
</g>
<g>
</g>
<g>
</g>
<g>
</g>
</svg>
