<?xml version="1.0" encoding="iso-8859-1"?>
<!-- Generator: Adobe Illustrator 19.0.0, SVG Export Plug-In . SVG Version: 6.00 Build 0)  -->
<svg viewBox="0 0 512 512" style="enable-background:new 0 0 512 512;" xml:space="preserve">
	<g>
		<path d="M467,0H45C19.919,0,0,20.44,0,45v272c0,24.64,19.682,44.8,45,44.8h94.797C137.319,371.392,136,381.645,136,392
			c0,66.168,53.832,120,120,120s120-53.832,120-120c0-10.355-1.319-20.408-3.797-30H467c24.714,0,45-20.12,45-45V45
			C512,20.286,491.879,0,467,0z M460.787,30c-5.694,5.694-169.315,169.315-172.966,172.967c-17.547,17.545-46.095,17.545-63.64,0
			L51.213,30H460.787z M30,310.787V51.213L159.787,181L30,310.787z M256,482c-49.626,0-90-40.374-90-90c0-49.626,40.374-90,90-90
			c49.626,0,90,40.374,90,90C346,441.626,305.626,482,256,482z M359.891,332c-20.779-35.841-59.566-60-103.891-60
			c-44.326,0-83.112,24.159-103.891,60H51.213L181,202.213l21.967,21.967c14.623,14.623,33.824,21.932,53.033,21.932
			c19.204,0,38.413-7.312,53.033-21.932L331,202.213L460.787,332H359.891z M482,310.787L352.213,181L482,51.213V310.787z"/>
	</g>
	<g>
		<path d="M256,332c-8.284,0-15,6.716-15,15v30c0,8.284,6.716,15,15,15s15-6.716,15-15v-30C271,338.716,264.284,332,256,332z"/>
	</g>
	<g>
		<circle cx="256" cy="437" r="15"/>
	</g>
</svg>
