<svg xmlns="http://www.w3.org/2000/svg" viewBox="0 0 469.333 469.333"><path d="M160 0H10.667A10.66 10.66 0 0 0 0 10.667V160c0 5.896 4.771 10.667 10.667 10.667S21.333 165.896 21.333 160V21.333H160c5.896 0 10.667-4.771 10.667-10.667S165.896 0 160 0zm298.667 0H309.333c-5.896 0-10.667 4.771-10.667 10.667s4.771 10.667 10.667 10.667H448V160a10.66 10.66 0 0 0 10.667 10.667A10.66 10.66 0 0 0 469.334 160V10.667A10.662 10.662 0 0 0 458.667 0zm0 298.667A10.66 10.66 0 0 0 448 309.334V448H309.333a10.66 10.66 0 0 0-10.667 10.667 10.66 10.66 0 0 0 10.667 10.667h149.333a10.66 10.66 0 0 0 10.667-10.667V309.333a10.66 10.66 0 0 0-10.666-10.666zM160 448H21.333V309.333c0-5.896-4.771-10.667-10.667-10.667S0 303.437 0 309.333v149.333a10.66 10.66 0 0 0 10.667 10.667H160a10.66 10.66 0 0 0 10.667-10.667A10.66 10.66 0 0 0 160 448z"/></svg>