<svg xmlns="http://www.w3.org/2000/svg" viewBox="0 0 504.642 504.642"><path d="M252.321 30.543C113.177 30.543 0 123.411 0 237.638c0 53.808 25.966 105.899 71.669 144.42-10.361 23.455-24.186 45.703-41.222 65.98-3.941 4.767-4.831 11.346-2.225 16.94 2.606 5.594 8.232 9.122 14.397 9.122 45.608 0 84.192-11.124 128.02-36.931 21.262 3.337 63.247 7.564 81.681 7.564 139.112 0 252.321-92.932 252.321-207.158.001-114.164-113.208-207.032-252.32-207.032zm0 382.47c-18.243 0-65.726-4.895-81.776-8.041-3.877-.667-7.914 0-11.283 2.034-29.621 18.084-55.46 28.477-83.111 32.831 11.918-18.052 21.835-37.122 29.558-56.986 2.574-6.643.477-14.143-5.212-18.434-44.337-33.594-68.714-78.662-68.714-126.812 0-96.682 98.939-175.344 220.539-175.344 121.632 0 220.539 78.662 220.539 175.344-.001 96.747-98.908 175.408-220.54 175.408z" fill="#010002"/></svg>