<svg xmlns="http://www.w3.org/2000/svg" width="338.939" height="338.94"><path d="M222.362 1.349a12.5 12.5 0 0 0-13.042 1.072L72.954 102.462a12.447 12.447 0 0 0-8.104-2.992H18.243c-6.902 0-12.5 5.598-12.5 12.5v115c0 6.903 5.598 12.5 12.5 12.5H64.85c3.094 0 5.92-1.13 8.104-2.992l136.367 100.041a12.486 12.486 0 0 0 7.395 2.421 12.502 12.502 0 0 0 12.498-12.5l-.002-313.94c0-4.71-2.649-9.022-6.85-11.151zM52.351 214.47H30.744v-90h21.607v90zm25-5.77v-78.458l126.861-93.068.002 264.594L77.351 208.7zM284.157 74.296c-5.619-4.012-13.424-2.707-17.436 2.912s-2.707 13.425 2.91 17.436c24.146 17.236 38.562 45.208 38.562 74.826s-14.416 57.59-38.562 74.826c-5.617 4.011-6.922 11.817-2.91 17.437a12.479 12.479 0 0 0 10.184 5.238 12.44 12.44 0 0 0 7.252-2.327c30.707-21.918 49.039-57.497 49.039-95.174s-18.332-73.256-49.039-95.174z"/></svg>