<svg xmlns="http://www.w3.org/2000/svg" viewBox="0 0 512 512"><path d="M159.843 147.688l.015.087.001-.001-.016-.086z"/><path d="M494.922 200.547L448 165.398V64.664L384 0H63.992v165.406L17.07 200.547C7.68 207.578 0 222.93 0 234.664v255.992C0 502.406 9.594 512 21.328 512h469.328c11.75 0 21.344-9.594 21.344-21.344V234.664c0-11.734-7.687-27.086-17.078-34.117zM448 192.055l34.125 25.562c.938.703 1.906 1.758 2.844 3.008L448 244.961v-52.906zM384 30.328l27.219 27.516L417.313 64H384V30.328zM85.328 21.336h277.328v64h64v173.656l-65.469 43.07c-2.688-8.953-10.25-26.25-29.938-36.102 3.594-9.57 6.172-20.094 7.813-31.297h34.266c5.891 0 10.672-4.773 10.672-10.664s-4.781-10.664-10.672-10.664h-32.297c.156-3.516.25-7.07.25-10.672 0-3.258-.094-6.438-.25-9.531 27.594-13.25 32-41 32.188-42.242h-.016c.078-.508.125-1.023.125-1.555 0-5.891-4.766-10.672-10.672-10.672-5.344 0-9.781 3.961-10.531 9.117l-.015-.007c-.228 1.292-2.684 13.69-14.048 22.296-5.906-27.117-19.813-45.367-40.344-55.07l20.859-34.859h-.016a10.533 10.533 0 0 0 1.531-5.477c0-5.891-4.781-10.664-10.672-10.664-3.891 0-7.266 2.086-9.141 5.195v-.008l-23.5 39.25c-6.5-1.18-13.438-1.773-20.781-1.773-7.32 0-14.227.586-20.703 1.758l-23.484-39.234-.008.008A10.643 10.643 0 0 0 202.662 64C196.773 64 192 68.773 192 74.664c0 2.008.563 3.875 1.523 5.477l-.016.008 20.844 34.82c-20.578 9.695-34.508 27.961-40.422 55.117-11.378-8.607-13.843-21.019-14.071-22.311l-.015.007c-.75-5.156-5.18-9.117-10.539-9.117-5.891 0-10.664 4.781-10.664 10.672 0 .531.047 1.047.125 1.555h-.016c.188 1.242 4.602 29.008 32.219 42.258a179.446 179.446 0 0 0-.242 9.516c0 3.602.078 7.156.227 10.672h-32.289c-5.891 0-10.664 4.773-10.664 10.664s4.773 10.664 10.664 10.664h34.266c1.641 11.211 4.219 21.727 7.82 31.305-19.664 9.844-27.227 27.078-29.938 36.063l-65.484-43.078V21.336zm170.196 321.321c-10.531 0-20.18 3.766-27.688 10l-58.391-38.375a10.729 10.729 0 0 0 1.094-3.391h.008c.031-.172 2.742-17.203 19.641-25.781C203.883 306.656 225.297 320 256 320c30.688 0 52.109-13.344 65.813-34.891 16.563 8.438 19.531 25.109 19.656 25.859l-.001-.002c.177 1.191.56 2.337 1.095 3.346l-58.891 38.751c-7.578-6.469-17.398-10.406-28.148-10.406zM277.531 386c0 12.125-9.883 22-22.008 22-12.133 0-22-9.875-22-22s9.868-22 22-22c12.125 0 22.008 9.875 22.008 22zm-78.187-226c2.547-5.914 5.758-10.984 9.625-15.195C219.227 133.656 235.047 128 256 128c20.938 0 36.766 5.656 47.031 16.805 3.859 4.211 7.063 9.281 9.625 15.195H199.344zm119.125 21.336c.969 6.516 1.469 13.633 1.469 21.328 0 30.102-5.656 54.797-16.391 71.398-8.813 13.656-20.953 21.531-36.883 23.859V181.336h51.805zm-73.141 0v116.586c-15.938-2.328-28.07-10.203-36.883-23.859-10.727-16.602-16.391-41.297-16.391-71.398.001-7.696.501-14.813 1.477-21.329h51.797zM29.859 217.617l34.133-25.555v52.867l-36.977-24.313c.938-1.241 1.907-2.296 2.844-2.999zm460.796 273.008c.001.016-.014.031-.03.031H21.367c-.008 0-.023-.016-.039-.031V242.406l193.945 127.531A43.174 43.174 0 0 0 212.187 386c0 23.938 19.398 43.344 43.336 43.344 23.93 0 43.32-19.406 43.32-43.344 0-5.469-1-10.688-2.844-15.5l194.656-128.086v248.211z"/><path d="M341.438 310.89l.03.076c-.004-.026-.011-.05-.014-.076h-.016zm10.671-163.118l.001.001.015-.087-.016.086zM181.328 448h-128c-5.891 0-10.664 4.781-10.664 10.656 0 5.906 4.773 10.688 10.664 10.688h128c5.891 0 10.672-4.781 10.672-10.688 0-5.875-4.781-10.656-10.672-10.656zM96 405.344H53.328c-5.891 0-10.664 4.766-10.664 10.656s4.774 10.656 10.664 10.656H96c5.891 0 10.664-4.766 10.664-10.656S101.891 405.344 96 405.344z"/></svg>